<?xml version="1.0" standalone="no"?>
<!DOCTYPE svg PUBLIC "-//W3C//DTD SVG 20010904//EN"
 "http://www.w3.org/TR/2001/REC-SVG-20010904/DTD/svg10.dtd">
<svg version="1.0" xmlns="http://www.w3.org/2000/svg"
 width="1365.000000pt" height="1365.000000pt" viewBox="0 0 1365.000000 1365.000000"
 preserveAspectRatio="xMidYMid meet">
<metadata>
Created by potrace 1.14, written by Peter Selinger 2001-2017
</metadata>
<g transform="translate(0.000000,1365.000000) scale(0.100000,-0.100000)"
fill="#000000" stroke="none">
<path d="M6737 13533 c-4 -3 -7 -17 -7 -30 0 -13 -21 -72 -46 -131 -67 -155
-75 -183 -59 -213 18 -31 12 -52 -47 -179 -27 -58 -59 -127 -71 -155 -12 -27
-35 -74 -51 -105 -30 -59 -93 -223 -99 -262 -6 -38 -75 -190 -99 -219 -20 -24
-80 -59 -103 -59 -11 -1 -33 -7 -50 -14 l-30 -13 31 -31 c74 -74 112 -136 120
-196 8 -53 -13 -93 -77 -151 -36 -33 -46 -36 -87 -33 l-46 3 -8 -44 c-9 -54
-122 -280 -151 -303 -11 -9 -38 -19 -60 -22 -21 -4 -55 -15 -75 -25 -45 -23
-129 -97 -121 -105 11 -11 73 -15 369 -21 157 -4 299 -8 315 -10 17 -2 40 -3
52 -4 39 -2 52 -25 41 -72 -9 -33 -18 -44 -45 -55 -39 -17 -45 -50 -10 -63 35
-14 55 -43 60 -91 8 -67 -11 -103 -62 -119 -57 -16 -178 -12 -256 10 -103 28
-315 21 -315 -12 0 -4 19 -13 43 -20 72 -19 96 -30 91 -42 -2 -7 -50 -22 -107
-35 -119 -27 -200 -51 -277 -82 -61 -24 -114 -23 -155 4 -29 19 -29 19 -14 60
10 29 8 34 -34 79 -25 26 -83 104 -129 172 -80 120 -100 141 -119 129 -12 -7
-12 -51 0 -59 21 -12 67 -214 70 -308 1 -16 12 -39 29 -55 95 -93 83 -124 -76
-203 -48 -24 -122 -65 -165 -91 -43 -27 -80 -48 -82 -48 -3 0 -109 -70 -237
-155 -129 -86 -247 -158 -265 -161 -87 -16 -128 88 -93 239 5 23 10 52 10 64
0 19 -3 21 -27 14 -16 -5 -54 -20 -85 -35 -31 -14 -69 -26 -83 -26 -31 0 -82
48 -82 77 0 19 121 143 273 280 50 45 94 91 97 102 5 22 -18 42 -63 56 -14 4
-122 41 -240 83 -227 80 -270 105 -270 156 0 35 -10 38 -70 22 -29 -8 -67 -12
-83 -9 -42 7 -291 89 -458 152 -75 28 -164 57 -199 65 -41 10 -73 24 -92 43
-25 24 -36 28 -78 25 -41 -3 -68 5 -167 49 -160 71 -302 129 -330 134 -55 9
-44 -46 57 -305 69 -177 69 -180 25 -221 -19 -18 -35 -39 -35 -45 0 -6 19 -14
43 -17 57 -8 87 -44 116 -137 13 -41 63 -196 112 -345 131 -399 131 -399 78
-445 -36 -32 -28 -53 30 -81 70 -34 84 -60 156 -274 31 -93 63 -180 71 -193
22 -33 31 -27 249 186 66 65 137 131 157 146 36 27 38 27 65 11 34 -20 63 -58
69 -89 2 -13 -13 -57 -36 -105 -22 -45 -40 -85 -40 -87 0 -8 37 5 97 32 101
45 123 41 207 -39 52 -49 57 -75 26 -136 -31 -62 -120 -147 -184 -176 -51 -23
-66 -45 -31 -45 26 0 23 -30 -12 -97 -91 -175 -170 -336 -209 -423 -36 -81
-45 -95 -65 -95 -16 0 -28 9 -37 28 -9 18 -21 27 -37 27 -28 0 -55 24 -55 50
0 21 -17 26 -140 35 -41 3 -86 7 -100 10 -101 20 -128 25 -148 31 -24 7 -24 6
-9 -22 24 -46 53 -72 156 -138 53 -35 102 -69 108 -78 9 -11 26 -14 56 -11 32
3 48 0 60 -12 9 -9 30 -15 49 -14 53 3 58 0 58 -27 0 -39 -95 -284 -161 -415
-68 -136 -75 -162 -41 -167 22 -3 23 -7 20 -55 -4 -42 -41 -248 -53 -293 -2
-8 -58 -12 -169 -13 -211 -3 -259 -8 -314 -32 -24 -11 -58 -19 -75 -17 -30 3
-32 6 -35 44 -2 32 3 47 28 78 16 21 30 46 31 55 1 9 3 46 5 83 4 84 15 105
108 211 41 47 77 96 81 108 4 13 14 30 23 38 49 49 -91 -4 -288 -110 -58 -31
-116 -60 -130 -64 -14 -4 -63 -25 -110 -47 -455 -214 -478 -220 -589 -165 -29
15 -55 27 -57 27 -12 0 -30 -77 -39 -157 -1 -17 -11 -44 -20 -60 -18 -31 -69
-70 -86 -65 -6 1 -34 4 -64 6 -48 4 -68 -2 -167 -44 -62 -26 -147 -64 -188
-83 -69 -32 -140 -63 -158 -68 -25 -8 -270 -134 -285 -146 -16 -15 -16 -17 0
-28 38 -26 585 -304 686 -349 l58 -25 55 21 c54 21 55 21 74 2 24 -24 87 -150
116 -233 21 -61 23 -63 30 -35 16 69 27 68 249 -19 72 -29 261 -117 420 -197
336 -169 522 -253 541 -246 18 7 8 33 -26 71 -15 17 -44 59 -65 95 -22 36 -56
88 -76 115 -70 94 -87 140 -93 249 -2 54 -6 99 -8 99 -36 18 -43 27 -44 61 0
20 5 44 11 53 11 15 17 15 76 -2 47 -13 108 -19 229 -21 238 -4 247 -7 256
-81 8 -68 14 -107 25 -148 18 -67 20 -78 20 -145 1 -54 -6 -81 -40 -162 -23
-54 -41 -102 -41 -108 0 -23 31 -7 57 30 15 22 33 40 39 40 20 0 44 -48 89
-174 24 -66 55 -151 69 -188 23 -61 24 -69 10 -83 -8 -8 -21 -15 -29 -15 -7 0
-25 -6 -40 -14 -17 -9 -36 -11 -53 -7 -32 9 -47 5 -87 -25 -16 -12 -95 -61
-175 -109 -80 -47 -154 -95 -164 -105 -18 -18 -18 -20 -3 -26 17 -6 68 5 202
45 41 13 113 24 175 27 58 3 107 8 110 10 2 3 9 19 15 36 6 20 23 38 45 49 63
32 69 30 109 -41 63 -110 89 -187 95 -276 5 -76 20 -134 36 -134 4 0 12 11 18
25 19 41 35 32 76 -40 41 -71 137 -215 163 -245 33 -36 55 -87 48 -111 -17
-52 -101 -109 -150 -102 -43 6 -136 63 -272 166 -41 31 -80 57 -84 57 -16 0
-9 -16 24 -56 18 -21 50 -81 71 -133 20 -52 48 -109 62 -126 32 -43 32 -88 -2
-114 -15 -12 -34 -21 -43 -21 -24 0 -317 301 -415 427 -27 34 -59 69 -72 78
l-24 15 -1 -142 c-2 -143 -3 -161 -13 -207 -9 -39 -44 -213 -50 -246 -3 -16
-8 -43 -11 -60 -5 -25 -48 -246 -68 -345 -15 -75 -36 -147 -99 -345 -28 -88
-64 -193 -80 -234 -16 -40 -47 -123 -69 -185 -21 -61 -43 -120 -48 -131 -5
-11 -17 -40 -27 -65 -9 -25 -38 -88 -62 -140 -75 -160 -81 -175 -70 -193 6
-12 18 -16 42 -13 65 9 291 78 464 142 169 63 269 96 322 107 14 3 39 10 55
16 39 14 400 109 445 116 73 13 130 19 255 30 161 13 193 16 245 25 30 5 87
12 125 15 225 19 289 27 323 41 29 12 32 16 22 34 -6 12 -26 30 -43 40 -98 58
-222 175 -290 275 -23 33 -57 78 -77 100 -88 98 -111 143 -84 170 27 26 67 14
178 -54 94 -57 162 -88 172 -79 2 3 -25 65 -60 139 -79 166 -84 185 -54 225
48 64 101 104 130 96 27 -7 97 -46 238 -134 98 -61 185 -108 470 -257 l114
-59 2 -45 c2 -44 -4 -60 -39 -109 -10 -14 -20 -43 -22 -64 -3 -22 -21 -102
-41 -178 -19 -77 -32 -146 -30 -153 12 -31 39 -6 109 100 68 102 149 197 170
197 4 0 5 22 1 48 l-6 49 45 21 44 21 149 -38 c82 -20 159 -42 171 -49 13 -7
25 -26 29 -47 7 -40 25 -44 91 -21 44 16 71 14 213 -14 88 -17 164 -28 233
-32 25 -2 27 -6 28 -48 0 -25 3 -114 5 -198 l3 -154 -77 3 c-55 2 -92 10 -130
27 -71 32 -89 25 -63 -26 26 -52 16 -66 -51 -65 -67 0 -240 11 -294 19 -80 11
-80 -42 -1 -96 60 -41 194 -290 205 -380 3 -25 6 -88 6 -141 1 -77 -3 -101
-18 -124 -19 -28 -19 -29 4 -47 12 -10 30 -18 39 -19 48 -2 109 -30 142 -65
20 -21 23 -34 21 -89 -2 -49 3 -74 18 -102 13 -24 18 -48 15 -65 -5 -20 1 -33
26 -59 39 -40 90 -148 123 -261 14 -48 50 -142 82 -209 31 -68 66 -153 79
-189 27 -78 59 -154 115 -275 23 -49 58 -130 77 -180 34 -89 48 -114 58 -103
3 3 16 43 29 89 34 121 91 265 220 564 8 17 25 62 40 100 36 96 61 134 96 146
30 11 50 53 50 109 0 37 24 119 48 167 12 23 46 63 76 89 l55 47 -30 29 c-37
38 -37 70 2 110 28 30 30 37 28 93 -2 35 2 70 9 83 19 33 90 81 139 94 28 7
43 16 44 27 8 155 17 219 38 264 49 110 61 141 61 156 0 20 83 145 145 219 25
29 45 58 45 64 0 18 -75 2 -143 -30 -75 -36 -123 -48 -239 -58 l-66 -6 5 59
c7 75 -5 84 -56 48 -36 -24 -41 -25 -85 -14 -25 6 -52 9 -60 6 -9 -4 -18 -2
-21 3 -7 12 -8 256 -1 288 14 66 22 72 141 93 39 7 72 14 75 14 3 1 23 5 45
10 55 10 204 51 236 63 14 6 41 13 60 16 19 3 53 12 77 20 59 21 142 35 244
41 76 4 89 2 96 -13 5 -9 6 -26 1 -37 -13 -35 -10 -49 22 -85 50 -57 144 -184
184 -249 25 -43 43 -61 57 -61 19 0 20 4 13 47 -4 26 -19 95 -35 154 -15 58
-28 131 -28 162 -1 77 -1 77 -9 76 -42 -7 -73 36 -73 100 0 27 7 33 96 75 100
48 174 76 200 76 13 0 15 -10 11 -55 -2 -31 -1 -58 4 -61 12 -7 46 16 58 40 6
12 17 30 23 41 7 10 30 47 51 81 42 69 67 92 246 218 157 111 188 128 212 115
25 -13 194 -182 243 -242 l40 -49 -19 -34 c-10 -20 -34 -48 -52 -64 -28 -25
-37 -28 -63 -20 -16 5 -30 7 -30 5 0 -3 -12 0 -26 5 -38 15 -66 -3 -58 -38 4
-15 10 -31 14 -37 4 -5 11 -20 15 -33 8 -29 -32 -85 -78 -108 -40 -21 -97 -83
-97 -107 0 -23 68 -54 222 -101 196 -60 219 -76 259 -186 12 -33 26 -60 30
-60 5 0 26 15 46 34 52 46 72 54 118 51 49 -4 60 -7 109 -28 21 -9 42 -17 46
-17 14 0 60 -60 86 -111 29 -58 42 -60 104 -18 55 37 72 36 219 -20 116 -44
150 -71 181 -143 22 -52 22 -52 77 -11 69 51 142 36 189 -39 32 -50 46 -62 94
-77 40 -13 72 -37 89 -69 11 -21 12 -21 46 -5 33 16 40 16 147 -11 62 -15 120
-28 129 -31 37 -8 43 10 25 72 -36 119 -46 159 -52 203 -7 53 -10 61 -59 163
-26 56 -45 82 -66 93 -54 27 -53 71 1 142 35 44 15 62 -115 106 -6 2 -16 19
-22 37 -6 19 -26 77 -45 129 -35 98 -48 183 -29 195 6 3 11 13 11 21 0 16 -67
110 -94 133 -24 20 -49 72 -76 157 l-23 71 37 54 c20 29 36 59 36 66 0 15 -61
48 -108 58 -24 5 -37 15 -47 38 -19 44 -116 295 -150 390 -16 44 -34 81 -42
84 -22 8 -162 -103 -169 -135 -11 -46 -22 -53 -55 -37 -15 8 -32 21 -36 28
-12 20 -55 47 -75 47 -22 0 -24 -34 -6 -109 13 -59 1 -94 -41 -116 -22 -11
-31 -10 -62 5 -20 11 -50 35 -67 55 -30 34 -32 40 -32 115 0 110 -5 119 -44
82 -51 -49 -81 -50 -104 -6 -9 17 -7 25 12 45 13 14 25 29 27 34 2 6 29 48 60
95 55 84 81 129 154 265 61 114 105 175 126 175 27 0 50 -42 63 -113 9 -49 15
-63 31 -65 11 -2 17 -1 13 3 -4 4 4 27 18 51 24 40 25 48 16 92 -12 52 -31
164 -39 228 -3 30 0 45 12 57 15 15 19 15 53 1 41 -17 82 -51 82 -70 0 -22 25
-32 100 -38 41 -3 125 -16 185 -28 188 -37 188 -14 0 107 -73 47 -143 95 -156
106 -12 10 -23 19 -24 19 -1 0 -16 -5 -32 -11 -24 -8 -42 -6 -89 10 -54 18
-59 22 -56 47 3 21 58 181 109 314 7 19 5 7 46 180 38 158 76 338 82 391 12
111 17 154 19 156 0 1 86 3 190 4 157 3 190 6 199 19 42 57 111 77 126 38 9
-24 1 -45 -45 -107 -13 -19 -22 -41 -19 -50 12 -41 15 -97 19 -312 4 -167 8
-234 17 -240 7 -4 37 6 68 23 122 66 251 141 260 152 5 6 12 28 15 49 15 95
76 135 169 111 l47 -12 38 54 c56 82 88 88 217 41 38 -14 42 -14 81 9 35 21
52 24 115 22 l73 -3 9 36 c11 46 47 79 117 109 30 12 91 40 135 61 126 60 147
66 205 64 77 -4 122 10 172 52 24 20 61 44 83 54 22 10 105 54 184 98 80 45
167 88 194 97 54 18 70 41 41 58 -49 28 -205 96 -233 101 -67 12 -299 124
-349 169 -20 18 -35 20 -154 19 -129 0 -132 0 -206 34 -227 103 -243 112 -258
151 -18 45 -47 102 -52 102 -2 0 -17 -9 -32 -20 -37 -26 -86 -36 -104 -21 -9
8 -50 11 -119 9 l-105 -3 -43 35 c-42 33 -48 35 -126 35 -73 1 -85 4 -108 25
-14 13 -30 42 -36 64 -17 66 -38 106 -53 106 -8 0 -45 16 -83 36 -37 20 -81
43 -96 51 -15 8 -46 17 -68 19 -31 3 -39 0 -40 -14 0 -9 -1 -113 -1 -230 l-1
-213 34 -32 c51 -48 79 -87 79 -112 0 -30 -33 -59 -59 -50 -19 6 -61 48 -94
95 -15 21 -21 22 -211 25 -108 2 -200 6 -205 9 -4 3 -11 27 -14 53 -3 27 -9
66 -12 88 -6 35 -4 41 17 50 32 14 26 40 -33 153 -27 51 -49 99 -49 106 0 7
-30 107 -66 222 -93 296 -98 315 -82 325 7 5 18 7 24 5 7 -3 22 6 34 19 18 19
27 22 47 14 39 -14 48 -12 104 34 30 24 96 68 148 97 180 102 199 147 47 114
-11 -3 -32 -7 -46 -10 -14 -3 -61 -13 -105 -23 -44 -10 -101 -22 -127 -25 -33
-5 -60 -18 -89 -42 -23 -19 -55 -42 -72 -50 -36 -19 -26 -34 -155 219 -63 124
-104 216 -105 237 -2 30 2 35 31 43 32 10 44 27 19 27 -7 0 -34 13 -59 29 -25
16 -48 27 -51 25 -7 -7 -151 141 -181 185 -39 58 -41 77 -11 107 33 33 84 31
177 -8 37 -15 70 -28 73 -28 3 0 -11 26 -31 58 -21 31 -46 71 -56 89 l-19 31
32 37 c18 20 44 42 60 50 30 16 13 30 304 -250 44 -42 95 -89 113 -103 l34
-26 19 25 c10 13 19 31 19 39 0 21 48 150 65 176 8 12 39 36 70 54 44 25 55
37 53 53 -3 18 -26 37 -61 49 -4 2 16 64 44 138 28 74 84 227 124 340 40 113
86 241 103 285 16 44 42 113 57 152 21 57 36 81 72 111 44 39 45 39 34 78 -6
21 -11 51 -11 66 0 47 40 135 83 185 74 84 73 81 42 93 -25 9 -27 14 -20 48 3
20 15 68 26 105 11 38 19 72 17 76 -3 8 -21 4 -161 -38 -66 -19 -69 -19 -86
-2 -10 10 -23 27 -29 37 -10 18 -13 17 -42 -11 -18 -16 -40 -47 -51 -67 -22
-43 -30 -49 -78 -59 -20 -4 -47 -10 -61 -13 -77 -20 -102 -14 -151 35 -31 31
-45 23 -76 -43 -18 -38 -39 -68 -54 -75 -62 -30 -106 -47 -269 -102 -96 -33
-209 -71 -250 -86 -41 -15 -79 -28 -85 -30 -5 -1 -17 -5 -25 -8 -46 -18 -113
-29 -177 -28 l-73 1 -24 -39 c-27 -42 -40 -48 -201 -96 -94 -28 -165 -60 -177
-79 -4 -6 -8 -19 -8 -28 0 -17 173 -196 238 -246 49 -37 86 -105 72 -131 -29
-56 -84 -49 -173 22 -27 23 -40 28 -48 20 -17 -17 -6 -48 45 -133 25 -41 46
-78 46 -82 0 -11 -61 -78 -81 -89 -14 -7 -34 -2 -81 22 -59 29 -327 187 -338
199 -3 3 -14 10 -25 17 -11 7 -60 36 -110 66 -49 30 -112 65 -140 77 -109 48
-280 134 -288 144 -12 18 2 58 34 93 22 25 28 40 23 58 -5 19 1 33 24 60 21
23 41 66 61 132 50 164 75 263 67 270 -11 11 -71 -55 -96 -105 -23 -48 -126
-202 -142 -213 -4 -3 -19 -20 -33 -39 -20 -28 -25 -45 -25 -96 0 -105 -30
-110 -245 -40 -76 25 -144 46 -150 46 -6 0 -33 16 -60 35 -55 39 -71 42 -320
61 -121 9 -152 17 -177 46 -23 27 -19 117 6 132 35 21 66 48 66 57 0 5 -17 17
-39 28 -51 26 -67 73 -41 121 27 50 63 45 144 -19 21 -17 43 -31 47 -31 5 0
15 15 22 33 27 63 33 64 282 68 77 1 150 5 162 10 20 7 21 12 12 33 -11 23
-23 31 -81 54 -59 24 -140 150 -251 393 -35 77 -48 89 -93 89 -56 0 -78 34
-53 82 13 23 7 31 -23 32 -80 5 -63 66 51 185 33 36 61 68 61 72 0 9 -101 31
-146 31 -51 0 -83 47 -174 257 -22 51 -70 153 -105 225 -35 73 -69 146 -76
162 -43 112 -57 268 -26 302 9 10 17 21 17 23 0 3 -20 27 -45 54 -25 28 -45
55 -45 61 0 6 -6 17 -14 23 -8 7 -17 31 -21 54 -4 23 -21 69 -37 102 -35 70
-33 67 -41 58z m-380 -3540 c-4 -143 -4 -144 -40 -212 l-35 -69 34 -54 c19
-29 37 -64 41 -77 10 -39 -22 -85 -78 -111 -61 -29 -63 -50 -6 -89 49 -34 61
-63 72 -180 9 -87 15 -919 7 -957 -5 -28 -1 -28 -102 -1 -30 9 -82 18 -115 21
-126 13 -154 24 -222 90 -50 49 -63 68 -63 93 0 26 -8 35 -52 64 -75 49 -88
78 -92 196 -2 54 -4 106 -5 116 -1 13 -8 17 -28 14 -16 -2 -33 0 -40 5 -7 5
-45 12 -85 15 -107 7 -161 37 -278 152 -82 81 -104 110 -139 182 -32 65 -59
103 -109 152 -77 76 -124 117 -134 117 -4 0 -13 7 -22 15 -50 51 119 198 218
189 22 -2 67 -20 107 -44 101 -60 100 -60 69 68 -11 46 -20 87 -20 92 0 15
100 69 159 86 72 22 93 11 115 -56 19 -57 47 -105 115 -192 44 -59 70 -73 72
-40 3 44 -3 100 -16 146 -8 28 -16 68 -19 89 -4 21 -15 51 -27 66 -20 27 -20
30 -5 59 16 30 89 73 148 86 34 8 77 -29 111 -93 26 -51 51 -71 67 -55 7 7 6
37 -3 98 -16 100 -21 92 78 121 75 21 90 25 140 31 22 3 41 6 42 7 1 1 33 2
72 3 l71 0 -3 -143z m978 131 c22 -5 42 -9 45 -9 101 -21 322 -86 376 -111 65
-30 80 -59 53 -101 -11 -17 -22 -42 -24 -55 -2 -12 -11 -52 -19 -88 -20 -87
-25 -132 -17 -152 6 -15 7 -15 26 0 63 54 165 201 165 239 0 11 9 32 20 46 18
23 23 24 57 15 21 -5 88 -34 149 -63 110 -52 137 -75 133 -113 -2 -29 0 -30
41 -21 30 7 50 5 76 -6 77 -32 234 -160 234 -190 0 -40 -179 -155 -262 -169
-58 -10 -80 -34 -83 -92 -2 -27 -4 -52 -4 -56 -1 -5 -18 -8 -40 -8 -57 0 -83
-26 -115 -120 -27 -76 -33 -84 -85 -122 -82 -59 -175 -159 -211 -226 -45 -86
-125 -172 -396 -429 -209 -199 -270 -251 -280 -240 -11 10 -14 150 -13 642 0
648 0 643 55 705 39 43 38 54 -3 63 -66 14 -132 83 -117 122 4 9 21 22 40 30
45 19 124 93 124 117 0 11 -13 32 -28 46 -42 40 -60 72 -67 122 -8 56 -9 216
-1 229 7 11 108 8 171 -5z m1993 -1251 c24 -27 53 -66 64 -87 18 -35 19 -43 7
-79 -7 -22 -22 -50 -32 -64 -11 -13 -17 -27 -13 -30 3 -4 32 -2 64 4 34 7 64
7 74 2 19 -10 86 -120 125 -205 30 -65 22 -87 -43 -115 -70 -32 -219 -160
-211 -183 3 -7 36 -11 86 -10 74 1 90 5 150 36 49 26 72 33 88 27 51 -19 71
-106 39 -173 -8 -18 -18 -51 -21 -72 l-6 -39 26 33 c49 60 70 42 104 -88 25
-95 32 -143 46 -320 l5 -66 -229 -1 c-254 -1 -284 -7 -289 -55 -4 -33 -32 -44
-69 -26 -35 17 -95 104 -126 183 -30 79 -51 83 -92 18 -40 -64 -65 -64 -81 0
-18 71 -62 134 -88 124 -8 -3 -26 -31 -41 -62 -22 -48 -25 -64 -19 -111 6 -48
4 -54 -12 -55 -31 -1 -65 -9 -113 -25 -55 -18 -194 -20 -252 -3 -23 7 -67 36
-100 66 -33 29 -64 53 -69 53 -5 0 -14 -9 -19 -19 -13 -24 -98 -77 -137 -85
-16 -3 -49 -8 -74 -12 -24 -3 -47 -7 -50 -9 -21 -13 -196 -21 -244 -12 -52 10
-48 15 509 574 l410 412 94 -2 c57 -2 95 1 97 8 2 5 6 42 8 80 2 39 5 73 5 77
1 4 24 6 53 5 l52 -1 22 72 c30 99 98 194 187 260 45 32 65 28 115 -25z
m-5048 -11 c13 -48 13 -48 -6 -88 -20 -42 -14 -49 32 -45 51 4 91 -16 103 -50
5 -16 21 -33 35 -39 45 -17 51 -45 22 -110 -14 -32 -26 -74 -26 -93 l0 -36 70
40 c38 21 76 39 84 39 19 0 200 -175 252 -243 21 -28 46 -58 54 -65 49 -41
112 -79 180 -107 119 -49 255 -187 331 -335 43 -82 144 -185 227 -230 34 -19
62 -38 62 -41 0 -12 -67 -15 -274 -15 l-202 1 -68 34 -67 35 -32 -19 c-96 -57
-148 -65 -189 -28 -25 21 -103 139 -112 169 -3 11 -20 33 -36 49 l-30 28 -25
-59 c-77 -176 -75 -172 -119 -180 -14 -2 -58 7 -97 21 -88 31 -115 31 -129 4
-16 -30 -71 -49 -152 -55 l-70 -4 -54 55 c-54 57 -66 60 -91 24 -20 -28 -94
-56 -173 -67 -86 -12 -162 -13 -155 -3 2 4 7 30 11 57 3 27 8 52 10 55 2 3 6
21 9 40 5 31 9 51 19 104 10 47 36 145 56 210 12 39 27 91 33 117 7 29 18 50
27 53 9 3 64 -6 121 -20 134 -32 229 -39 229 -16 0 18 -175 159 -223 180 -56
23 -60 27 -63 44 -1 10 3 23 11 30 7 7 16 24 20 37 12 42 74 147 89 153 10 4
19 -4 28 -24 7 -16 17 -28 23 -26 14 5 42 92 49 157 9 78 23 114 71 189 52 80
92 122 111 114 7 -3 18 -21 24 -41z m5150 -2219 c18 -20 39 -51 46 -69 7 -17
20 -34 28 -37 8 -3 40 13 72 36 l58 41 104 1 c67 1 109 -3 119 -10 28 -20 22
-104 -22 -340 -23 -118 -90 -339 -114 -372 -21 -29 -33 -29 -84 1 -41 25 -74
33 -152 41 -22 3 -63 7 -91 11 -76 8 -83 -19 -19 -66 129 -95 165 -119 208
-134 59 -22 60 -36 13 -149 -84 -204 -236 -437 -320 -492 -24 -16 -28 -16 -49
-2 -38 25 -160 152 -209 217 -15 19 -29 48 -32 64 -7 41 -12 44 -87 49 -37 3
-76 10 -87 16 -22 12 -37 68 -47 171 -9 95 -8 93 -86 118 -77 24 -176 84 -270
162 -33 28 -63 50 -67 50 -10 0 -127 113 -206 200 -37 41 -120 129 -184 195
-180 185 -262 277 -256 287 8 12 466 8 515 -4 40 -11 92 -55 115 -100 17 -32
15 -32 47 -17 14 6 34 33 48 62 17 36 31 54 49 58 14 4 118 7 233 8 233 1 224
5 188 -75 l-19 -42 62 -61 c34 -33 64 -61 68 -61 6 0 60 92 70 121 4 9 -8 31
-27 54 -62 71 -11 92 56 23 37 -38 57 -71 64 -104 15 -70 57 -83 69 -21 12 65
50 132 104 182 36 34 54 32 92 -12z m-5046 -28 c20 -10 36 -20 36 -24 0 -3 7
-15 15 -25 14 -19 17 -18 87 18 93 48 111 43 172 -52 24 -38 51 -72 59 -75 11
-4 23 8 41 40 14 25 26 48 26 51 0 3 15 24 34 47 29 35 41 42 73 43 88 3 730
2 747 -1 11 -2 22 -9 24 -16 7 -21 -337 -353 -403 -388 -12 -7 -33 -32 -45
-55 -42 -81 -89 -110 -120 -73 -27 32 -52 8 -66 -65 -10 -53 -27 -81 -93 -148
-64 -65 -87 -74 -212 -81 -10 -1 -16 -13 -17 -40 -6 -88 -19 -111 -65 -111
-22 0 -38 -8 -52 -26 -18 -23 -31 -28 -85 -31 -80 -5 -100 -16 -100 -52 0 -37
-36 -153 -62 -199 -44 -79 -111 -155 -149 -167 -19 -6 -29 -1 -60 34 -49 54
-52 82 -23 165 13 38 24 73 24 78 0 13 -18 10 -67 -13 -68 -31 -81 -21 -146
113 -68 138 -87 182 -87 201 0 8 19 22 42 32 23 9 53 26 68 38 15 12 60 49
101 81 112 90 115 101 27 92 -86 -8 -113 -13 -215 -41 -54 -15 -91 -21 -97
-15 -20 20 -104 291 -123 395 -3 17 -13 71 -22 121 -10 50 -17 108 -17 130 l1
39 125 0 125 0 49 -35 c26 -19 54 -39 61 -44 8 -6 27 2 57 22 101 70 232 84
332 37z m1968 -597 c1 -7 2 -62 3 -122 l2 -108 -39 -45 c-21 -24 -38 -51 -38
-60 0 -8 16 -33 35 -56 39 -45 40 -71 6 -108 -17 -19 -17 -21 10 -74 23 -46
27 -66 25 -114 -2 -32 -12 -76 -22 -97 -23 -49 -124 -191 -158 -223 -14 -14
-26 -30 -26 -36 0 -7 39 -50 86 -96 47 -46 90 -93 96 -103 6 -10 12 -44 14
-74 1 -30 8 -60 13 -65 20 -20 12 -74 -16 -107 l-27 -32 18 -50 c24 -67 28
-149 11 -197 -8 -22 -12 -50 -10 -61 4 -21 11 -93 20 -206 5 -68 -10 -93 -56
-94 -63 -2 -242 36 -379 80 -47 15 -112 35 -145 45 -126 36 -155 47 -165 65
-12 22 -3 50 16 50 15 0 56 51 61 78 8 39 10 211 2 224 -6 9 -22 -2 -61 -42
-86 -90 -110 -131 -113 -195 -1 -31 -5 -58 -8 -61 -10 -10 -89 18 -205 73
-168 81 -159 73 -152 138 3 30 4 55 1 55 -4 0 -24 -12 -46 -25 -22 -14 -45
-25 -52 -25 -21 0 -191 134 -197 155 -18 65 201 230 330 249 22 3 30 17 43 76
8 42 22 66 54 101 51 55 98 89 124 89 25 0 43 19 43 45 0 38 83 148 213 284
92 95 147 122 147 71 0 -11 4 -21 9 -25 26 -15 131 152 131 207 0 27 10 49 38
85 47 58 339 343 352 343 6 0 11 -6 12 -12z m1151 -330 c447 -448 464 -468
476 -578 l6 -54 80 -41 c93 -47 119 -83 130 -177 4 -32 12 -61 18 -65 6 -3 52
-21 103 -38 51 -18 123 -50 161 -73 76 -45 163 -124 163 -147 0 -27 -136 -149
-193 -173 -59 -25 -91 -15 -170 56 -22 18 -41 31 -44 29 -2 -3 1 -38 8 -79 15
-88 8 -122 -31 -158 -30 -28 -151 -79 -208 -87 -37 -5 -39 -3 -45 80 -4 49
-12 66 -49 115 -23 31 -45 59 -48 62 -3 3 -20 24 -39 48 -50 64 -65 57 -57
-25 20 -210 26 -233 66 -256 80 -48 9 -97 -200 -141 -75 -15 -92 -10 -121 39
-37 62 -61 51 -73 -34 -3 -24 -7 -45 -8 -47 -2 -1 -23 -5 -48 -8 -25 -3 -56
-8 -70 -11 -14 -2 -49 -6 -78 -9 -50 -5 -53 -4 -63 22 -6 15 -10 115 -10 232
l1 205 30 59 c28 52 29 60 16 75 -17 19 -32 75 -41 153 -6 43 -3 68 11 105 21
56 60 117 99 153 50 46 49 53 -3 132 -105 158 -131 269 -98 409 17 68 17 70
-3 98 -29 41 -27 59 18 129 l40 61 -32 33 c-29 30 -32 39 -36 111 -3 80 1 107
19 107 6 0 151 -141 323 -312z"/>
</g>
</svg>
