<?xml version="1.0" standalone="no"?>
<!DOCTYPE svg PUBLIC "-//W3C//DTD SVG 20010904//EN"
 "http://www.w3.org/TR/2001/REC-SVG-20010904/DTD/svg10.dtd">
<svg version="1.0" xmlns="http://www.w3.org/2000/svg"
 width="1024.000000pt" height="1008.000000pt" viewBox="0 0 1024.000000 1008.000000"
 preserveAspectRatio="xMidYMid meet">

<g transform="translate(0.000000,1008.000000) scale(0.100000,-0.100000)"
fill="#FEE716" stroke="none">
<path d="M5050 10049 c0 -12 -6 -35 -14 -52 -74 -169 -80 -188 -68 -207 17
-28 16 -34 -27 -124 -54 -113 -81 -174 -81 -181 0 -4 -8 -19 -19 -33 -19 -27
-71 -167 -71 -192 0 -13 -24 -70 -58 -139 -19 -38 -64 -69 -102 -70 -14 -1
-32 -6 -40 -11 -12 -8 -9 -15 22 -42 49 -44 92 -128 83 -166 -3 -16 -25 -48
-49 -71 -40 -39 -46 -42 -80 -36 -34 7 -36 6 -36 -19 0 -14 -4 -34 -9 -44 -5
-9 -28 -56 -50 -104 -39 -86 -60 -108 -101 -108 -43 0 -150 -72 -150 -101 0
-5 84 -10 188 -10 103 -1 234 -4 292 -8 105 -6 105 -6 108 -33 4 -36 -13 -66
-40 -70 -30 -4 -35 -34 -9 -43 37 -12 51 -34 51 -84 0 -62 -17 -77 -101 -84
-50 -5 -81 -1 -128 14 -88 27 -238 23 -248 -7 -2 -6 20 -14 49 -20 58 -10 74
-30 31 -39 -128 -27 -214 -51 -271 -77 -36 -16 -49 -17 -83 -8 -46 13 -56 29
-39 61 11 19 9 25 -11 40 -24 17 -93 110 -149 202 -33 52 -60 62 -60 22 0 -14
4 -25 8 -25 5 0 15 -26 22 -57 7 -32 16 -74 21 -93 5 -19 9 -52 9 -72 0 -30 6
-42 29 -59 31 -23 45 -57 35 -84 -4 -8 -34 -29 -68 -45 -130 -63 -276 -153
-514 -317 -83 -56 -119 -57 -147 -2 -18 34 -18 78 -1 144 8 28 10 54 6 58 -4
5 -37 -6 -74 -24 -56 -28 -69 -31 -91 -21 -14 6 -30 23 -37 37 -10 22 -7 29
33 73 24 26 58 59 75 72 17 14 64 55 104 92 83 76 83 86 2 112 -26 8 -85 29
-132 46 -47 17 -112 40 -145 52 -74 25 -95 43 -95 79 0 27 -2 28 -32 22 -18
-3 -41 -10 -51 -15 -13 -7 -70 9 -208 56 -105 37 -211 75 -235 85 -24 11 -64
23 -89 27 -33 4 -51 13 -62 30 -13 21 -21 23 -54 18 -30 -5 -51 -1 -91 19 -96
47 -265 117 -289 119 -42 5 -34 -31 70 -290 28 -69 27 -84 -9 -111 -35 -25
-31 -41 9 -41 51 0 69 -26 105 -155 19 -66 49 -158 66 -205 35 -95 81 -242 87
-280 3 -18 -3 -32 -21 -49 -38 -36 -33 -55 18 -69 49 -13 58 -27 117 -207 18
-55 37 -112 42 -127 5 -16 17 -28 27 -28 9 0 79 63 155 140 95 96 146 140 161
140 27 0 74 -53 74 -83 0 -12 -14 -46 -30 -76 -17 -30 -30 -56 -30 -58 0 -10
35 0 76 22 26 14 58 25 71 25 26 0 109 -70 118 -100 14 -43 -93 -173 -156
-190 -38 -10 -54 -30 -25 -30 30 0 26 -23 -17 -98 -54 -94 -150 -295 -171
-355 -9 -27 -50 -18 -54 11 -3 17 -10 22 -32 22 -24 0 -29 5 -32 27 -3 27 -5
28 -63 29 -69 2 -215 26 -237 40 -14 9 -9 -7 12 -42 13 -20 52 -51 102 -81 44
-26 83 -53 85 -61 4 -9 16 -12 43 -7 29 5 39 3 43 -9 5 -12 14 -14 38 -9 51
10 57 -17 23 -92 -8 -16 -25 -63 -39 -103 -13 -41 -39 -97 -56 -125 -26 -42
-59 -117 -59 -133 0 -2 9 -4 20 -4 16 0 20 -7 20 -33 0 -19 -7 -55 -14 -82 -8
-26 -18 -72 -22 -101 l-6 -53 -168 -3 c-143 -3 -171 -6 -187 -20 -11 -10 -35
-18 -56 -18 -36 0 -37 1 -37 38 0 28 6 44 25 60 22 19 25 30 25 91 0 76 1 78
97 183 24 26 43 53 43 59 0 7 7 21 17 31 15 17 15 18 -3 18 -19 0 -249 -112
-269 -131 -5 -5 -15 -9 -23 -9 -8 0 -60 -22 -115 -49 -56 -26 -118 -56 -138
-64 -19 -9 -66 -30 -103 -47 -84 -37 -133 -39 -187 -4 -23 14 -42 24 -43 22
-9 -12 -26 -92 -26 -120 0 -25 -9 -43 -32 -67 -28 -29 -36 -32 -68 -26 -44 9
-80 7 -94 -3 -6 -5 -33 -17 -61 -27 -27 -10 -80 -33 -116 -52 -37 -18 -69 -33
-73 -33 -7 0 -206 -93 -256 -119 -19 -10 -36 -23 -37 -28 -2 -5 47 -35 109
-66 62 -31 156 -79 208 -106 52 -27 131 -66 174 -87 78 -36 81 -37 109 -21 54
32 65 25 112 -75 24 -51 47 -106 52 -123 l7 -30 6 35 c5 31 8 35 35 34 17 -1
51 -10 75 -22 25 -11 72 -29 105 -41 33 -11 116 -50 185 -86 145 -75 318 -160
375 -185 22 -10 60 -27 85 -38 25 -11 48 -18 52 -16 9 6 -12 54 -23 54 -7 0
-35 43 -67 100 -7 14 -21 34 -31 45 -10 11 -32 44 -49 73 -29 47 -32 60 -32
132 0 73 -2 80 -20 80 -17 0 -20 7 -20 40 0 49 14 57 65 36 28 -12 74 -16 186
-16 165 0 179 -5 179 -64 0 -18 9 -70 21 -116 23 -88 21 -135 -4 -191 -19 -41
-47 -110 -47 -115 0 -2 6 -4 14 -4 8 0 23 14 33 30 32 55 47 41 92 -92 24 -68
49 -137 57 -155 19 -42 18 -63 -4 -63 -10 0 -27 -7 -39 -15 -16 -11 -28 -13
-47 -5 -20 7 -31 5 -53 -13 -16 -12 -39 -29 -53 -37 -213 -123 -229 -134 -214
-149 10 -11 31 -6 159 37 30 10 83 16 132 17 76 0 83 2 83 20 0 27 9 37 50 58
41 22 40 23 101 -95 32 -65 39 -88 39 -137 0 -87 28 -147 43 -91 6 23 32 18
42 -8 12 -31 120 -197 148 -226 15 -16 27 -40 27 -54 0 -32 -65 -92 -100 -92
-28 0 -85 24 -95 40 -3 5 -29 22 -58 39 -28 17 -66 44 -84 61 -31 29 -53 38
-53 22 0 -5 11 -19 25 -32 14 -13 25 -27 25 -31 0 -5 11 -33 25 -63 14 -30 25
-59 25 -64 0 -5 11 -22 25 -38 18 -21 24 -36 20 -53 -7 -27 -32 -50 -54 -51
-17 0 -248 239 -304 314 -36 49 -64 76 -77 76 -4 0 -5 -45 -2 -100 3 -73 0
-119 -12 -168 -16 -67 -33 -154 -56 -282 -6 -36 -16 -85 -22 -110 -6 -25 -14
-67 -19 -95 -9 -55 -59 -221 -90 -300 -10 -28 -19 -57 -19 -66 0 -8 -11 -37
-24 -65 -13 -27 -36 -87 -51 -134 -28 -86 -81 -213 -138 -328 -38 -78 -31 -91
40 -74 117 29 204 56 288 89 127 51 255 93 281 93 13 0 26 5 29 10 3 6 16 10
28 10 11 0 64 13 117 29 159 47 229 61 375 71 77 5 163 14 190 19 28 6 115 15
195 21 155 11 187 23 160 55 -8 9 -31 26 -53 37 -47 23 -170 145 -193 191 -9
18 -41 58 -70 89 -58 64 -72 92 -54 113 20 25 48 17 128 -34 76 -49 131 -75
139 -67 2 2 -9 30 -26 62 -56 110 -82 176 -76 194 3 10 26 37 50 59 38 35 48
39 68 32 24 -9 102 -54 167 -97 51 -33 115 -69 195 -110 39 -20 111 -58 160
-84 l90 -47 1 -43 c0 -33 -5 -48 -23 -63 -13 -12 -23 -32 -23 -48 0 -25 -45
-213 -55 -230 -8 -11 6 -39 19 -39 6 0 24 21 39 48 50 85 114 167 141 180 21
11 24 16 16 32 -18 33 -11 49 28 66 35 15 41 14 102 -4 36 -11 82 -23 103 -27
65 -11 87 -25 87 -57 0 -32 18 -36 70 -14 23 9 45 11 79 4 25 -5 71 -14 101
-20 30 -6 82 -13 115 -17 l60 -6 3 -147 3 -148 -60 0 c-43 0 -70 6 -95 21 -19
11 -42 19 -51 17 -13 -3 -13 -6 0 -32 30 -56 26 -58 -92 -52 -60 3 -129 8
-155 12 -40 5 -49 3 -55 -12 -6 -17 11 -36 65 -73 12 -8 47 -67 79 -130 57
-114 58 -117 61 -214 3 -80 1 -102 -13 -124 -17 -25 -17 -27 1 -40 10 -7 28
-13 41 -13 30 0 72 -21 97 -49 15 -16 18 -30 13 -68 -4 -38 -1 -53 13 -71 14
-16 17 -32 13 -52 -4 -22 -1 -31 10 -36 9 -3 24 -20 35 -37 27 -47 72 -164 72
-188 0 -11 25 -72 55 -135 31 -63 58 -129 62 -147 3 -18 34 -93 69 -168 35
-74 64 -139 64 -143 0 -4 6 -22 14 -39 8 -18 16 -40 20 -49 10 -31 23 -19 34
30 11 51 25 93 54 159 10 24 18 47 18 52 0 5 15 42 34 82 48 106 60 135 92
222 31 85 54 117 83 117 14 0 20 10 24 48 16 123 37 172 96 222 l46 40 -23 15
c-30 22 -30 68 1 88 21 14 23 21 19 69 -4 51 -2 57 28 86 18 18 51 38 75 44
l43 12 4 85 c3 71 9 97 36 152 18 36 32 73 32 82 0 24 38 86 88 141 24 27 48
58 53 69 10 18 8 19 -33 12 -23 -4 -59 -17 -78 -29 -19 -13 -60 -26 -90 -30
-30 -4 -73 -10 -94 -13 l-39 -5 6 51 c7 58 -3 65 -47 30 -23 -18 -31 -20 -56
-9 -16 6 -38 9 -49 5 -20 -6 -21 -3 -21 119 0 140 5 151 68 161 82 13 230 46
272 61 25 9 61 20 80 24 19 4 57 14 83 23 26 10 90 19 142 22 95 6 95 6 95
-18 0 -12 -5 -28 -11 -34 -9 -9 1 -26 41 -70 54 -59 124 -160 135 -194 4 -11
15 -19 27 -19 17 0 19 5 15 27 -9 42 -23 101 -42 172 -10 38 -14 77 -10 97 5
28 3 34 -12 34 -30 0 -40 13 -47 56 -7 40 -6 42 31 59 21 9 66 30 99 46 34 16
72 29 84 29 20 0 21 -3 14 -45 -5 -37 -4 -45 10 -45 15 0 43 37 83 111 32 61
46 74 156 150 59 41 121 84 139 97 17 12 38 22 47 22 22 0 221 -204 221 -227
0 -10 -16 -36 -35 -57 -27 -30 -40 -37 -57 -32 -62 18 -88 19 -94 2 -3 -9 1
-27 10 -41 9 -13 16 -33 16 -43 0 -19 -49 -72 -67 -72 -6 0 -25 -16 -42 -35
-51 -59 -50 -59 221 -142 68 -21 93 -44 112 -108 10 -30 21 -55 25 -55 5 0 24
16 44 35 41 40 69 44 138 20 75 -26 88 -37 114 -92 14 -29 31 -53 38 -53 7 0
28 11 47 25 19 14 40 25 48 25 8 0 60 -17 115 -37 87 -32 102 -42 123 -75 13
-21 24 -44 24 -53 0 -23 24 -18 50 10 14 15 34 25 52 25 41 0 88 -27 88 -50 0
-22 45 -60 72 -60 20 0 62 -36 70 -60 3 -11 9 -10 29 3 22 14 32 13 132 -12
125 -32 121 -36 82 79 -14 40 -25 89 -25 107 0 19 -9 51 -20 71 -11 20 -26 54
-34 75 -9 22 -25 41 -39 46 -42 16 -44 54 -5 98 31 33 20 56 -37 74 l-50 17
-37 98 c-40 104 -46 142 -26 174 10 16 9 23 -10 43 -12 13 -22 27 -22 31 0 4
-13 18 -29 32 -19 16 -37 46 -50 87 -11 34 -22 69 -26 78 -3 9 7 31 25 54 16
21 30 44 30 51 0 7 -25 21 -56 31 l-57 18 -30 80 c-16 44 -37 98 -47 120 -9
22 -27 70 -39 107 -13 37 -27 70 -31 73 -5 3 -35 -15 -67 -41 -32 -26 -59 -47
-60 -48 -2 -1 -4 -13 -6 -27 -5 -32 -30 -35 -54 -6 -19 25 -54 47 -72 47 -14
0 -14 -43 1 -91 10 -36 9 -41 -12 -64 -32 -34 -53 -31 -100 11 -40 36 -40 37
-40 110 0 41 -4 74 -8 74 -5 0 -19 -11 -32 -25 -29 -30 -56 -32 -71 -4 -9 17
-7 25 9 42 26 29 109 159 142 222 80 154 113 205 131 205 21 0 49 -47 49 -84
0 -13 3 -31 6 -40 7 -18 24 -22 24 -5 0 6 9 24 21 40 11 16 17 34 14 39 -6 10
-10 31 -34 173 -5 32 -4 53 4 64 11 14 16 14 54 -3 31 -13 44 -26 48 -45 5
-26 8 -27 82 -32 42 -3 96 -11 121 -17 82 -21 120 -24 120 -7 0 15 -33 40
-145 107 -38 24 -75 50 -81 58 -10 14 -16 14 -38 4 -22 -10 -32 -9 -56 3 -16
8 -36 15 -45 15 -23 0 -19 18 29 142 45 114 52 137 81 263 41 178 56 255 63
330 l7 70 141 3 141 3 28 29 c31 33 69 39 79 14 10 -25 8 -32 -25 -69 -28 -32
-30 -39 -20 -61 7 -16 11 -94 11 -214 0 -113 4 -191 10 -195 5 -3 31 7 56 22
25 15 78 45 117 66 79 41 87 50 87 90 0 18 11 40 30 59 31 31 54 33 117 13 17
-6 24 -1 38 28 32 68 79 80 161 41 34 -16 36 -16 66 6 23 17 38 21 66 16 75
-13 77 -12 80 13 5 35 30 69 55 77 12 3 73 31 136 61 105 51 118 55 166 50 58
-6 88 5 130 47 14 14 32 26 39 26 6 0 69 33 139 74 69 40 142 77 161 80 38 7
56 34 28 42 -9 3 -47 20 -83 39 -37 19 -75 35 -85 35 -26 0 -102 30 -145 56
-20 13 -54 30 -74 38 -21 9 -44 24 -50 33 -11 15 -29 17 -114 16 l-101 -2
-108 50 c-59 28 -114 54 -122 58 -8 5 -22 30 -31 56 -18 56 -28 63 -54 35 -19
-21 -69 -27 -80 -10 -4 7 -35 8 -84 4 -77 -7 -78 -6 -114 25 -33 30 -40 32
-82 26 -80 -13 -112 13 -130 104 -6 32 -13 39 -45 46 -17 4 -53 22 -81 41 -33
22 -63 34 -85 34 l-34 0 0 -171 0 -171 34 -32 c46 -43 59 -71 46 -96 -19 -35
-56 -25 -90 25 l-31 44 -152 3 -152 3 -6 40 c-3 22 -9 53 -14 68 -6 24 -4 29
14 34 30 8 26 32 -19 111 -22 38 -40 77 -40 87 0 9 -27 99 -60 199 -33 100
-60 190 -60 199 0 15 20 23 35 15 2 -2 11 6 18 17 13 17 18 18 41 7 24 -11 30
-9 64 22 20 19 57 45 82 58 94 50 138 79 144 95 12 30 9 30 -174 -12 -36 -9
-85 -18 -109 -20 -29 -3 -48 -11 -58 -25 -8 -11 -30 -28 -50 -39 l-36 -18 -47
91 c-26 50 -66 127 -88 170 -45 85 -51 114 -27 121 50 16 51 17 20 28 -16 6
-36 16 -43 24 -7 7 -20 13 -28 13 -16 0 -118 105 -146 151 -23 38 -23 52 2 74
25 22 82 16 141 -15 23 -11 44 -19 46 -16 3 2 -14 29 -36 60 -23 30 -41 61
-41 69 0 17 62 77 81 77 8 0 79 -65 159 -145 80 -80 153 -145 162 -145 12 0
21 13 28 43 10 40 34 105 49 137 5 8 29 25 54 37 53 26 60 48 20 65 -16 7 -29
13 -31 13 -1 1 11 35 28 76 16 41 50 133 76 204 62 178 104 294 119 330 7 17
20 54 30 82 11 37 26 59 48 75 18 12 34 23 36 25 2 1 -1 20 -8 41 -18 53 5
128 56 183 53 57 59 69 33 69 -26 0 -26 28 1 109 12 34 19 65 15 68 -3 3 -38
-6 -78 -21 -90 -32 -105 -33 -120 -1 -6 14 -14 25 -18 25 -12 0 -59 -55 -69
-82 -7 -19 -18 -28 -33 -28 -13 0 -45 -7 -71 -15 -52 -16 -69 -12 -101 24 -28
31 -44 26 -57 -19 -7 -22 -21 -47 -31 -57 -18 -16 -100 -48 -248 -95 -36 -12
-78 -27 -95 -33 -16 -7 -74 -27 -129 -45 -80 -26 -108 -31 -150 -26 -51 6 -52
5 -70 -29 -15 -27 -29 -37 -60 -45 -99 -24 -205 -62 -220 -79 -13 -15 -15 -24
-8 -38 13 -23 178 -183 190 -183 5 0 18 -17 30 -38 19 -35 20 -40 6 -60 -24
-35 -68 -25 -132 32 -16 14 -25 17 -33 9 -11 -11 16 -76 52 -122 11 -13 19
-29 19 -37 0 -22 -51 -74 -73 -74 -21 1 -147 71 -277 155 -149 97 -190 120
-280 158 -52 22 -102 46 -110 52 -8 7 -25 16 -37 19 -32 10 -29 48 5 83 24 23
27 32 18 46 -9 14 -6 21 17 40 22 18 34 45 61 147 19 69 38 133 41 143 5 12 2
17 -8 17 -15 0 -77 -79 -77 -97 0 -14 -71 -116 -108 -155 -32 -34 -35 -42 -33
-92 1 -52 0 -56 -24 -62 -30 -7 -42 -5 -160 35 -49 17 -102 33 -117 36 -15 3
-38 16 -50 29 -20 20 -36 25 -108 30 -210 15 -228 18 -250 38 -16 15 -20 29
-18 61 3 36 7 44 35 57 40 18 42 37 6 51 -33 12 -43 26 -43 61 0 31 23 58 51
58 10 0 37 -17 60 -37 33 -30 42 -34 50 -22 5 8 9 19 9 25 0 6 8 18 18 27 16
14 43 17 170 17 83 0 153 3 155 8 10 17 -13 51 -40 57 -15 3 -35 11 -43 18
-24 18 -107 139 -115 167 -4 14 -13 34 -19 45 -7 11 -23 46 -35 78 -13 31 -28
57 -35 58 -6 0 -23 2 -38 3 -39 3 -54 20 -41 48 17 37 14 43 -17 40 -28 -3
-30 -1 -30 30 0 28 10 44 60 93 33 33 60 63 60 66 0 8 -51 22 -90 24 -14 1
-32 3 -42 3 -18 2 -48 51 -92 152 -47 107 -68 154 -79 175 -81 155 -107 230
-107 311 0 50 4 65 18 73 15 9 13 14 -19 48 -40 41 -69 92 -69 119 0 21 -42
113 -52 114 -5 0 -8 -9 -8 -21z m-280 -2634 c0 -106 -7 -134 -52 -196 -9 -14
-6 -24 20 -57 44 -55 44 -100 0 -127 -18 -11 -41 -23 -50 -27 -27 -11 -22 -31
12 -50 62 -35 64 -52 68 -485 3 -284 1 -393 -8 -393 -6 0 -26 6 -44 14 -19 8
-65 17 -103 21 -110 10 -124 15 -175 63 -36 33 -48 52 -48 73 0 23 -7 32 -38
48 -61 31 -72 56 -72 161 0 90 0 90 -24 84 -13 -3 -27 -1 -30 5 -4 6 -32 11
-62 11 -87 0 -124 22 -250 150 -29 29 -74 105 -74 126 0 24 -143 167 -177 178
-53 17 0 96 92 140 48 23 74 20 135 -19 30 -19 58 -35 62 -35 13 0 9 44 -7 90
-8 23 -15 49 -15 56 0 19 52 50 117 71 60 19 77 12 87 -39 10 -50 119 -203
137 -192 14 8 11 77 -6 124 -8 23 -15 55 -15 70 0 15 -7 33 -15 40 -41 34 -2
85 82 110 38 12 45 11 63 -5 11 -10 29 -37 41 -61 14 -31 27 -44 41 -44 17 0
19 4 14 33 -3 17 -9 51 -12 73 l-6 42 58 17 c87 26 122 33 192 34 l62 1 0
-105z m768 89 c159 -37 290 -79 315 -101 21 -20 22 -46 2 -63 -8 -7 -15 -22
-15 -34 0 -11 -7 -43 -15 -70 -16 -53 -20 -126 -7 -126 12 0 115 126 129 158
7 15 12 37 13 49 0 25 27 43 50 35 21 -6 97 -40 145 -63 65 -31 77 -44 69 -73
-6 -24 -5 -25 25 -16 16 4 40 6 53 2 47 -12 188 -122 188 -147 0 -29 -139
-125 -181 -125 -16 0 -41 -7 -54 -16 -20 -13 -25 -25 -25 -60 0 -42 -1 -44
-31 -44 -51 0 -66 -15 -88 -90 -19 -62 -26 -72 -59 -89 -45 -23 -146 -127
-157 -161 -13 -41 -88 -129 -195 -230 -56 -52 -148 -139 -205 -194 -57 -54
-108 -95 -114 -92 -8 5 -11 151 -11 477 0 501 0 499 49 543 28 26 27 33 -9 41
-73 16 -120 95 -65 109 30 8 105 75 105 94 0 8 -11 23 -25 34 -44 34 -55 69
-55 173 l0 95 50 0 c28 0 81 -7 118 -16z m1477 -951 c40 -50 45 -63 41 -92 -3
-19 -15 -44 -26 -56 -28 -30 -12 -39 40 -24 34 11 42 10 59 -5 20 -18 101
-168 101 -187 0 -19 -31 -49 -51 -49 -23 0 -159 -116 -159 -135 0 -30 159 -9
195 25 29 27 59 25 79 -5 17 -26 22 -85 7 -101 -14 -14 -31 -84 -21 -84 5 0
14 9 20 20 17 32 47 25 58 -12 29 -95 41 -160 48 -270 l6 -78 -182 0 c-193 0
-210 -4 -210 -49 0 -23 -15 -26 -53 -12 -26 10 -80 97 -95 152 -11 46 -37 49
-58 7 -29 -56 -64 -66 -64 -18 0 32 -48 111 -65 106 -20 -5 -63 -100 -54 -118
5 -9 9 -26 9 -37 0 -17 -6 -21 -32 -21 -18 -1 -44 -7 -58 -15 -31 -18 -148
-20 -202 -3 -22 6 -53 28 -73 50 -38 41 -50 46 -62 24 -14 -24 -85 -66 -111
-66 -14 0 -60 -7 -102 -16 -93 -18 -184 -16 -188 6 -1 9 150 167 353 370 l355
355 75 0 74 0 3 65 3 65 41 -2 41 -1 13 51 c17 66 31 89 99 160 35 36 64 57
78 57 16 0 37 -18 68 -57z m-3801 5 c7 -29 6 -42 -7 -62 -24 -36 -22 -39 19
-32 42 8 84 -14 84 -44 0 -13 7 -20 20 -20 12 0 25 -10 32 -25 10 -22 8 -30
-10 -55 -15 -20 -22 -43 -21 -72 0 -24 3 -37 6 -30 2 6 9 12 13 12 5 0 26 11
46 25 20 14 43 25 50 25 18 0 189 -171 208 -209 18 -34 118 -98 167 -107 54
-10 193 -152 231 -234 35 -78 93 -140 171 -183 31 -17 57 -35 57 -39 0 -5 -83
-8 -185 -8 -181 0 -186 1 -225 25 -22 14 -46 25 -53 25 -7 0 -28 -11 -47 -25
-48 -35 -101 -34 -130 3 -31 40 -70 102 -70 111 0 12 -40 61 -50 61 -4 0 -20
-33 -35 -72 -14 -40 -34 -81 -42 -90 -21 -23 -57 -22 -112 2 -52 24 -80 25
-88 5 -10 -27 -60 -45 -123 -45 -59 0 -61 1 -88 40 -32 46 -44 49 -70 15 -26
-32 -99 -55 -181 -55 l-63 0 6 28 c3 15 15 77 26 137 11 61 33 148 50 195 16
47 30 93 30 102 0 28 18 30 83 10 74 -24 197 -38 197 -22 0 6 -8 17 -17 25
-122 100 -158 125 -179 125 -17 0 -24 6 -24 19 0 11 4 22 9 25 5 3 12 17 15
31 9 36 59 115 72 115 7 0 14 -9 17 -20 14 -55 46 5 54 102 3 37 13 78 22 91
9 13 33 50 54 81 44 66 67 70 81 14z m3865 -1663 c17 -20 31 -42 31 -49 0 -8
6 -19 14 -25 10 -9 23 -3 57 24 43 34 47 35 131 35 85 0 88 -1 94 -25 3 -14 4
-42 1 -62 -21 -147 -29 -190 -56 -288 -40 -148 -56 -185 -82 -185 -11 0 -29 9
-40 19 -12 11 -42 22 -67 24 -26 3 -73 9 -104 13 -49 5 -58 4 -58 -10 0 -8 12
-23 28 -33 15 -10 29 -20 32 -24 16 -21 103 -79 118 -79 10 0 26 -6 36 -13 18
-13 18 -16 -3 -72 -42 -112 -112 -239 -175 -319 -61 -77 -82 -95 -105 -89 -11
3 -59 48 -106 99 -67 74 -85 101 -85 124 0 29 -2 30 -47 31 -81 2 -97 10 -106
54 -5 22 -11 68 -14 103 -4 55 -7 62 -26 62 -44 1 -135 48 -206 106 -40 32
-89 71 -111 86 -21 16 -51 44 -67 64 -15 20 -110 120 -210 223 -101 103 -183
192 -183 199 0 10 43 13 198 10 183 -3 199 -4 227 -25 17 -12 37 -34 45 -50 8
-15 15 -29 16 -31 1 -1 13 3 27 9 15 7 28 23 32 39 13 57 26 61 206 58 l164
-3 -3 -25 c-2 -14 -10 -32 -18 -41 -13 -15 -9 -22 38 -67 l52 -50 28 49 c15
26 28 52 28 57 0 5 -11 18 -25 30 -29 25 -32 40 -9 49 25 10 93 -64 101 -110
9 -61 52 -60 53 1 0 38 78 142 106 142 7 0 26 -16 43 -35z m-4121 -32 c23 -18
44 -33 47 -33 4 0 21 11 38 24 44 32 90 46 156 46 58 0 116 -25 127 -55 8 -21
18 -19 64 10 69 44 91 35 141 -54 30 -54 48 -58 63 -15 12 31 53 94 71 106 5
4 146 8 313 8 237 0 302 -3 302 -13 0 -21 -273 -285 -303 -293 -18 -4 -29 -15
-33 -33 -7 -28 -51 -81 -68 -81 -5 0 -18 8 -29 17 -18 17 -19 17 -33 -2 -8
-10 -14 -29 -14 -42 0 -35 -23 -72 -75 -123 -42 -41 -51 -45 -106 -50 l-61 -5
-2 -48 c-2 -53 -17 -70 -54 -63 -17 2 -26 -3 -32 -20 -8 -20 -17 -24 -52 -24
-68 0 -88 -9 -88 -38 0 -61 -41 -162 -87 -215 -65 -74 -79 -79 -114 -39 -41
45 -45 74 -20 127 32 68 25 81 -29 50 -53 -31 -62 -23 -124 105 -32 66 -56
127 -53 134 3 7 18 17 33 20 16 4 44 22 64 39 19 18 57 48 82 67 61 45 62 62
6 55 -72 -10 -151 -26 -192 -41 -21 -7 -42 -11 -47 -9 -14 9 -87 248 -98 325
-7 41 -17 98 -23 126 -6 29 -7 57 -3 64 5 8 35 11 100 8 88 -3 95 -5 133 -35z
m1812 -516 c0 -91 -1 -94 -30 -122 -35 -34 -38 -55 -9 -81 37 -33 40 -50 18
-78 l-21 -26 21 -34 c33 -53 28 -128 -12 -192 -35 -55 -81 -116 -109 -146 -10
-10 -18 -20 -18 -23 0 -3 34 -37 75 -76 73 -70 75 -73 75 -120 0 -26 5 -51 10
-54 17 -11 11 -61 -10 -80 -24 -21 -25 -44 -5 -71 17 -23 20 -125 4 -141 -7
-7 -9 -28 -5 -55 4 -23 9 -77 12 -120 6 -71 5 -77 -16 -88 -12 -6 -32 -9 -44
-6 -11 4 -60 13 -107 20 -47 7 -101 20 -120 28 -19 9 -70 25 -114 37 -146 41
-160 46 -163 69 -2 13 4 22 18 27 38 12 53 50 54 140 1 46 -2 87 -7 91 -8 9
-65 -50 -108 -112 -22 -33 -27 -49 -23 -76 10 -59 -15 -57 -154 12 l-124 62 6
44 c3 24 3 44 0 44 -3 0 -17 -9 -31 -20 -30 -24 -56 -26 -73 -5 -6 8 -36 30
-66 50 -71 48 -71 67 1 133 59 54 129 93 185 102 33 5 35 8 40 53 5 40 14 55
55 97 33 34 58 50 79 52 26 3 32 8 34 33 5 39 38 83 176 232 52 57 96 72 96
33 0 -26 15 -25 35 3 61 86 73 112 68 140 -5 26 6 41 138 173 79 79 149 144
156 144 10 0 13 -25 13 -93z m906 -209 c235 -237 284 -291 298 -330 10 -26 16
-60 14 -75 -3 -25 2 -29 47 -46 75 -27 104 -61 113 -132 l7 -59 70 -21 c92
-27 207 -97 249 -153 17 -22 16 -23 -41 -78 -64 -61 -115 -88 -151 -79 -12 3
-41 22 -63 42 -22 20 -42 33 -45 30 -3 -3 -1 -22 5 -44 20 -71 14 -107 -21
-137 -28 -23 -143 -66 -176 -66 -7 0 -11 19 -11 50 1 41 -4 56 -27 86 -16 20
-48 61 -71 91 -47 60 -61 56 -49 -15 4 -20 9 -68 12 -105 6 -62 9 -69 36 -83
40 -21 35 -52 -12 -69 -73 -26 -148 -45 -178 -45 -26 0 -34 6 -48 35 -23 50
-48 43 -54 -15 l-5 -44 -87 -14 c-48 -8 -94 -12 -103 -8 -13 4 -15 33 -15 179
0 170 1 175 25 212 23 33 24 39 11 54 -16 17 -24 49 -33 122 -4 37 0 57 23
104 16 31 43 69 61 82 38 29 42 52 12 79 -12 10 -39 55 -60 98 -33 67 -39 90
-39 143 0 35 7 80 15 100 14 34 14 38 -5 58 -27 29 -25 45 10 93 17 23 30 46
30 50 0 5 -11 18 -25 30 -22 19 -25 30 -25 92 0 50 4 70 13 70 6 0 139 -127
293 -282z"/>
</g>
</svg>
